<svg width="37" height="37" viewBox="0 0 37 37" fill="none" xmlns="http://www.w3.org/2000/svg">
<g clip-path="url(#clip0_20_445)">
<path d="M18.8242 33.3944C17.6275 33.3944 16.4799 32.919 15.6338 32.0729C14.7876 31.2267 14.3123 30.0791 14.3123 28.8825C14.3123 28.5833 14.4311 28.2964 14.6426 28.0849C14.8542 27.8734 15.1411 27.7545 15.4402 27.7545H22.2081C22.5072 27.7545 22.7942 27.8734 23.0057 28.0849C23.2172 28.2964 23.3361 28.5833 23.3361 28.8825C23.3361 30.0791 22.8607 31.2267 22.0146 32.0729C21.1684 32.919 20.0208 33.3944 18.8242 33.3944ZM16.8728 30.0105C17.0711 30.3523 17.3557 30.6361 17.6982 30.8334C18.0407 31.0306 18.4289 31.1344 18.8242 31.1344C19.2194 31.1344 19.6077 31.0306 19.9501 30.8334C20.2926 30.6361 20.5772 30.3523 20.7756 30.0105H16.8728Z" fill="white"/>
<path d="M21.0801 8.57892H16.5682C16.2691 8.57892 15.9822 8.46008 15.7706 8.24854C15.5591 8.03701 15.4402 7.7501 15.4402 7.45095C15.4402 6.55347 15.7968 5.69276 16.4314 5.05815C17.066 4.42354 17.9267 4.06702 18.8242 4.06702C19.7216 4.06702 20.5824 4.42354 21.217 5.05815C21.8516 5.69276 22.2081 6.55347 22.2081 7.45095C22.2081 7.7501 22.0893 8.03701 21.8777 8.24854C21.6662 8.46008 21.3793 8.57892 21.0801 8.57892Z" fill="white"/>
<path d="M31.2319 30.0105H6.41643C6.11727 30.0105 5.83037 29.8917 5.61883 29.6801C5.40729 29.4686 5.28845 29.1817 5.28845 28.8825C5.28747 27.6086 5.59471 26.3534 6.18396 25.224C6.77321 24.0946 7.62697 23.1246 8.67238 22.3967V16.4748C8.67232 13.794 9.73259 11.2221 11.6218 9.32021C13.511 7.41831 16.0758 6.34087 18.7565 6.323H18.8806C21.573 6.323 24.1551 7.39256 26.059 9.29639C27.9628 11.2002 29.0324 13.7824 29.0324 16.4748V22.3967C30.0673 23.1308 30.9102 24.1036 31.4894 25.2326C32.0686 26.3616 32.3672 27.6136 32.3599 28.8825C32.3599 29.1817 32.241 29.4686 32.0295 29.6801C31.818 29.8917 31.5311 30.0105 31.2319 30.0105ZM7.6572 27.7545H29.9911C29.8314 26.9725 29.5075 26.2334 29.0408 25.5859C28.5741 24.9384 27.9753 24.3973 27.284 23.9984C27.1119 23.899 26.969 23.7559 26.87 23.5836C26.771 23.4112 26.7192 23.2158 26.72 23.017V16.4748C26.72 14.3807 25.8881 12.3723 24.4074 10.8916C22.9266 9.41083 20.9183 8.57895 18.8242 8.57895C16.7301 8.57895 14.7217 9.41083 13.241 10.8916C11.7602 12.3723 10.9283 14.3807 10.9283 16.4748V23.017C10.9291 23.2158 10.8774 23.4112 10.7783 23.5836C10.6793 23.7559 10.5365 23.899 10.3643 23.9984C9.67302 24.3973 9.07423 24.9384 8.60756 25.5859C8.14089 26.2334 7.81696 26.9725 7.6572 27.7545Z" fill="white"/>
</g>
<defs>
<clipPath id="clip0_20_445">
<rect width="36.0952" height="36.0952" fill="white" transform="translate(0.77655 0.683105)"/>
</clipPath>
</defs>
</svg>
