<svg width="43" height="43" viewBox="0 0 43 43" fill="none" xmlns="http://www.w3.org/2000/svg">
  <path d="M38.7026 8.37512H4.29928C3.94834 8.37512 3.61178 8.51453 3.36363 8.76268C3.11548 9.01083 2.97607 9.34739 2.97607 9.69832C2.97607 10.0493 3.11548 10.3858 3.36363 10.634C3.61178 10.8821 3.94834 11.0215 4.29928 11.0215H38.7026C39.0535 11.0215 39.39 10.8821 39.6382 10.634C39.8863 10.3858 40.0258 10.0493 40.0258 9.69832C40.0258 9.34739 39.8863 9.01083 39.6382 8.76268C39.39 8.51453 39.0535 8.37512 38.7026 8.37512Z" fill="white"/>
  <path d="M4.29928 22.9303H21.5009C21.8518 22.9303 22.1884 22.7909 22.4366 22.5428C22.6847 22.2946 22.8241 21.9581 22.8241 21.6071C22.8241 21.2562 22.6847 20.9196 22.4366 20.6715C22.1884 20.4233 21.8518 20.2839 21.5009 20.2839H4.29928C3.94834 20.2839 3.61178 20.4233 3.36363 20.6715C3.11548 20.9196 2.97607 21.2562 2.97607 21.6071C2.97607 21.9581 3.11548 22.2946 3.36363 22.5428C3.61178 22.7909 3.94834 22.9303 4.29928 22.9303Z" fill="white"/>
  <path d="M33.4097 32.1927H4.29928C3.94834 32.1927 3.61178 32.3322 3.36363 32.5803C3.11548 32.8285 2.97607 33.165 2.97607 33.516C2.97607 33.8669 3.11548 34.2034 3.36363 34.4516C3.61178 34.6997 3.94834 34.8392 4.29928 34.8392H33.4097C33.7607 34.8392 34.0972 34.6997 34.3454 34.4516C34.5935 34.2034 34.7329 33.8669 34.7329 33.516C34.7329 33.165 34.5935 32.8285 34.3454 32.5803C34.0972 32.3322 33.7607 32.1927 33.4097 32.1927Z" fill="white"/>
</svg>
