<svg width="36" height="36" viewBox="0 0 36 36" fill="none" xmlns="http://www.w3.org/2000/svg">
<path d="M1.48359 9.24607C1.13203 9.24607 0.780466 9.42185 0.583591 9.74529C0.274216 10.2445 0.428903 10.8984 0.928122 11.2008L8.84531 16.1156C9.14062 16.2984 9.51328 16.3265 9.83672 16.1859L17.3109 12.839L32.0625 24.1031C32.5266 24.4547 33.1945 24.3703 33.5461 23.9062C33.8977 23.4422 33.8133 22.7742 33.3492 22.4226L18.0914 10.7789C17.782 10.5398 17.3672 10.4976 17.0156 10.6523L9.47812 14.0203L2.03906 9.40779C1.86328 9.30232 1.67343 9.24607 1.48359 9.24607Z" fill="#B70F0F"/>
<path d="M26.3672 24.5531L35.5781 26.7539L32.8781 17.6766L26.3672 24.5531Z" fill="#B70F0F"/>
</svg>
