<svg width="36" height="36" viewBox="0 0 36 36" fill="none" xmlns="http://www.w3.org/2000/svg">
<path d="M1.48362 26.7539C1.13206 26.7539 0.780496 26.5781 0.583621 26.2547C0.274246 25.7555 0.428934 25.1016 0.928153 24.7992L8.84534 19.8844C9.14065 19.7016 9.51331 19.6735 9.83675 19.8141L17.311 23.161L32.0625 11.8969C32.5266 11.5453 33.1946 11.6297 33.5461 12.0938C33.8977 12.5578 33.8133 13.2258 33.3492 13.5774L18.0914 25.2211C17.7821 25.4602 17.3672 25.5024 17.0157 25.3477L9.47815 21.9797L2.03909 26.5922C1.86331 26.6977 1.67347 26.7539 1.48362 26.7539Z" fill="#75FE53"/>
<path d="M26.3672 11.4469L35.5781 9.24609L32.8781 18.3234L26.3672 11.4469Z" fill="#75FE53"/>
</svg>
